<svg width="443" height="125" viewBox="0 0 443 125" fill="none" xmlns="http://www.w3.org/2000/svg">
<path fill-rule="evenodd" clip-rule="evenodd" d="M30.6922 92.8259L31.685 94.444C31.9316 94.7477 32.2093 95.0249 32.5134 95.2709C33.7848 65.6502 57.5387 41.6763 87.6319 39.0306C83.6251 35.2408 74.8665 37.013 60.4994 36.7997C58.5492 28.7911 62.0314 13.8005 59.0678 9.58388C56.2516 5.57783 51.7064 6.77163 45.1795 6.77093C37.1536 6.77093 30.3704 5.59201 30.1609 14.0479C29.9982 20.6003 30.8032 30.6601 29.967 36.5001C27.1955 37.5841 12.5023 36.5717 8.12335 36.8564C-0.192519 37.3969 0.121175 44.1043 0.130391 51.624C0.134644 55.075 -0.506914 59.5195 1.01795 62.4186C5.41568 70.7781 18.7067 64.8846 29.8975 67.096C31.2824 73.356 28.8558 87.5764 30.6922 92.8255L30.6922 92.8259Z" fill="#3E5EA9"/>
<path fill-rule="evenodd" clip-rule="evenodd" d="M92.0404 45.0384C90.3237 41.7178 76.2465 45.2978 73.6211 46.1907C59.5691 50.9677 47.7962 61.9562 42.1366 76.4927C40.3945 80.9688 37.3203 92.4599 38.5236 95.729C39.5643 96.1207 46.2107 96.5375 47.6714 96.221C48.7671 95.5266 48.3265 88.3202 51.1646 81.4079C53.4189 75.9135 55.7257 71.7887 60.4049 66.9483C65.0617 62.1352 69.559 59.2595 74.9414 57.0601C79.0829 55.369 85.657 54.1957 89.1395 54.4686C89.6052 55.6603 89.2012 58.5771 89.3841 59.9677C87.7876 60.6415 85.0813 60.5121 83.1382 60.8503C68.7846 63.3623 57.3403 74.7279 54.6606 89.5445C53.1258 98.0457 53.8265 96.5613 58.9332 96.8764C60.6207 96.9802 62.3062 97.2982 63.7314 96.8604C64.5999 94.6547 64.39 91.3554 65.671 87.9161C66.8273 84.8061 68.3844 81.9379 70.9762 79.0838C75.3292 74.2901 84.0141 69.8995 88.6755 71.2347C88.8134 72.8454 88.7319 75.6732 88.3597 76.7774C83.9861 77.913 80.0102 77.6646 75.0152 83.1497C71.555 86.9531 68.9753 94.0776 69.8674 97.5098C75.4224 98.1723 74.5147 97.8565 79.3916 97.6456C80.7457 91.662 83.1932 87.9299 88.3154 87.2639C88.6188 91.5993 88.885 94.5543 89.2919 96.585C90.4482 102.353 90.8792 94.1584 90.5828 84.8185C90.5492 83.753 90.653 82.3054 90.1004 82.4458C83.8638 84.0501 78.167 86.3916 77.0473 94.9939C76.9679 95.6067 75.4104 95.304 72.1065 95.0669C72.8427 87.9721 77.4021 82.0027 84.3724 79.9636C86.8348 79.2422 88.5242 79.7247 90.339 79.0473C91.0812 77.5246 91.3811 70.2919 90.5534 68.9099C88.5671 68.2584 84.0584 68.9389 81.2472 69.7783C74.1336 71.8993 67.9215 77.4164 64.6215 84.4279C62.0279 89.9358 62.5057 92.6126 61.699 94.5317C61.5998 94.5458 61.3814 94.4849 61.4009 94.5664C61.4186 94.6451 61.1723 94.5926 61.106 94.5955L59.0353 94.5515C57.9492 94.4859 57.4452 94.5196 56.4282 94.2346C56.0263 91.506 57.8113 85.6433 59.2635 82.2976C63.9551 71.4846 73.7962 64.2757 85.0643 62.944C86.9685 62.7193 89.35 62.9338 90.8933 62.4616C91.7993 61.0027 92.073 53.8675 91.2776 52.4029C88.8208 51.2598 80.4759 52.8059 76.327 54.0858C64.9334 57.6017 55.0313 67.1071 49.9435 78.4344C47.0791 84.8104 47.1904 87.9608 46.0746 93.8344L40.7028 93.6891C40.1556 89.7072 42.7324 80.548 44.8322 75.8207C52.7926 57.9065 69.7476 46.2102 88.0254 46.1202C89.7297 46.112 91.3396 46.8578 92.0393 45.037L92.0404 45.0384Z" fill="#92F8C9"/>
<path d="M118.01 99C116.743 99 115.699 98.5899 114.879 97.7697C114.059 96.9495 113.648 95.9056 113.648 94.638V16.0105C113.648 14.7429 114.059 13.699 114.879 12.8788C115.699 12.0586 116.743 11.6485 118.01 11.6485C119.278 11.6485 120.322 12.0586 121.142 12.8788C121.962 13.699 122.372 14.7429 122.372 16.0105V50.9064H176.953V16.0105C176.953 14.7429 177.363 13.699 178.183 12.8788C179.004 12.0586 180.047 11.6485 181.315 11.6485C182.583 11.6485 183.627 12.0586 184.447 12.8788C185.267 13.699 185.677 14.7429 185.677 16.0105V94.638C185.677 95.9056 185.267 96.9495 184.447 97.7697C183.627 98.5899 182.583 99 181.315 99C180.047 99 179.004 98.5899 178.183 97.7697C177.363 96.9495 176.953 95.9056 176.953 94.638V58.7356H122.372V94.638C122.372 95.9056 121.962 96.9495 121.142 97.7697C120.322 98.5899 119.278 99 118.01 99ZM234.637 99.5592C228.598 99.5592 223.229 98.2544 218.532 95.6446C213.909 92.9603 210.255 89.2694 207.571 84.5719C204.961 79.8744 203.656 74.5058 203.656 68.4661C203.656 62.3519 204.887 56.9833 207.347 52.3604C209.882 47.6628 213.35 43.9719 217.749 41.2876C222.148 38.6033 227.218 37.2612 232.96 37.2612C238.627 37.2612 243.548 38.5661 247.723 41.1758C251.974 43.711 255.254 47.2527 257.566 51.8011C259.877 56.3495 261.033 61.5317 261.033 67.3477C261.033 68.5407 260.66 69.51 259.915 70.2557C259.169 70.9267 258.2 71.2623 257.007 71.2623H209.472V64.1042H257.901L253.092 67.5714C253.167 63.2467 252.384 59.3694 250.743 55.9394C249.103 52.5095 246.754 49.8252 243.697 47.8865C240.714 45.9479 237.135 44.9785 232.96 44.9785C228.71 44.9785 224.981 45.9852 221.775 47.9984C218.569 50.0116 216.071 52.8077 214.282 56.3868C212.567 59.8913 211.709 63.9177 211.709 68.4661C211.709 73.0145 212.678 77.041 214.617 80.5455C216.63 84.05 219.352 86.8088 222.782 88.822C226.212 90.8353 230.164 91.8419 234.637 91.8419C237.322 91.8419 240.006 91.3945 242.69 90.4997C245.449 89.5304 247.649 88.3374 249.289 86.9207C250.109 86.2496 251.042 85.9141 252.085 85.9141C253.129 85.8395 254.024 86.1005 254.77 86.697C255.739 87.5917 256.224 88.5611 256.224 89.605C256.298 90.6489 255.888 91.5436 254.993 92.2893C252.533 94.377 249.401 96.1293 245.598 97.546C241.796 98.8882 238.142 99.5592 234.637 99.5592ZM300.372 99.5592C294.631 99.5592 289.486 98.2171 284.937 95.5328C280.389 92.7739 276.773 89.0457 274.088 84.3482C271.479 79.6507 270.174 74.3567 270.174 68.4661C270.174 62.501 271.516 57.1697 274.2 52.4722C276.959 47.7747 280.687 44.0838 285.385 41.3995C290.082 38.6406 295.376 37.2612 301.267 37.2612C307.157 37.2612 312.414 38.6406 317.037 41.3995C321.735 44.0838 325.426 47.7747 328.11 52.4722C330.869 57.1697 332.285 62.501 332.36 68.4661L328.893 71.1504C328.893 76.519 327.625 81.3657 325.09 85.6904C322.629 89.9405 319.237 93.3332 314.912 95.8683C310.662 98.3289 305.815 99.5592 300.372 99.5592ZM301.267 91.73C305.592 91.73 309.432 90.7234 312.787 88.7102C316.217 86.697 318.901 83.9381 320.84 80.4336C322.853 76.8546 323.86 72.8654 323.86 68.4661C323.86 63.9923 322.853 60.0031 320.84 56.4986C318.901 52.9941 316.217 50.2353 312.787 48.2221C309.432 46.1343 305.592 45.0904 301.267 45.0904C297.017 45.0904 293.177 46.1343 289.747 48.2221C286.317 50.2353 283.595 52.9941 281.582 56.4986C279.569 60.0031 278.562 63.9923 278.562 68.4661C278.562 72.8654 279.569 76.8546 281.582 80.4336C283.595 83.9381 286.317 86.697 289.747 88.7102C293.177 90.7234 297.017 91.73 301.267 91.73ZM327.998 99C326.73 99 325.687 98.6272 324.866 97.8815C324.046 97.0613 323.636 96.0174 323.636 94.7499V75.6243L325.761 66.7884L332.36 68.4661V94.7499C332.36 96.0174 331.95 97.0613 331.13 97.8815C330.31 98.6272 329.266 99 327.998 99ZM362.308 99C359.325 99 356.641 98.1798 354.255 96.5394C351.943 94.899 350.116 92.6248 348.774 89.7168C347.507 86.8088 346.873 83.4535 346.873 79.6507V15.8987C346.873 14.6311 347.246 13.6245 347.991 12.8788C348.812 12.0586 349.855 11.6485 351.123 11.6485C352.391 11.6485 353.397 12.0586 354.143 12.8788C354.963 13.6245 355.373 14.6311 355.373 15.8987V79.6507C355.373 82.8569 356.007 85.4667 357.275 87.4799C358.617 89.4931 360.294 90.4997 362.308 90.4997H365.104C366.222 90.4997 367.117 90.9098 367.788 91.73C368.459 92.4757 368.795 93.4823 368.795 94.7499C368.795 96.0174 368.31 97.0613 367.341 97.8815C366.446 98.6272 365.253 99 363.762 99H362.308ZM404.244 99.5592C398.503 99.5592 393.358 98.2171 388.81 95.5328C384.261 92.7739 380.645 89.0457 377.961 84.3482C375.351 79.6507 374.046 74.3567 374.046 68.4661C374.046 62.501 375.388 57.1697 378.073 52.4722C380.831 47.7747 384.56 44.0838 389.257 41.3995C393.955 38.6406 399.249 37.2612 405.139 37.2612C411.03 37.2612 416.287 38.6406 420.909 41.3995C425.607 44.0838 429.298 47.7747 431.982 52.4722C434.741 57.1697 436.158 62.501 436.232 68.4661L432.765 71.1504C432.765 76.519 431.498 81.3657 428.962 85.6904C426.502 89.9405 423.109 93.3332 418.784 95.8683C414.534 98.3289 409.688 99.5592 404.244 99.5592ZM405.139 91.73C409.464 91.73 413.304 90.7234 416.659 88.7102C420.089 86.697 422.774 83.9381 424.712 80.4336C426.725 76.8546 427.732 72.8654 427.732 68.4661C427.732 63.9923 426.725 60.0031 424.712 56.4986C422.774 52.9941 420.089 50.2353 416.659 48.2221C413.304 46.1343 409.464 45.0904 405.139 45.0904C400.889 45.0904 397.049 46.1343 393.619 48.2221C390.189 50.2353 387.468 52.9941 385.454 56.4986C383.441 60.0031 382.435 63.9923 382.435 68.4661C382.435 72.8654 383.441 76.8546 385.454 80.4336C387.468 83.9381 390.189 86.697 393.619 88.7102C397.049 90.7234 400.889 91.73 405.139 91.73ZM431.87 99C430.603 99 429.559 98.6272 428.739 97.8815C427.918 97.0613 427.508 96.0174 427.508 94.7499V75.6243L429.633 66.7884L436.232 68.4661V94.7499C436.232 96.0174 435.822 97.0613 435.002 97.8815C434.182 98.6272 433.138 99 431.87 99Z" fill="#3E5EA9"/>
</svg>
